<?xml version="1.0" encoding="UTF-8" standalone="no"?>
<!DOCTYPE svg PUBLIC "-//W3C//DTD SVG 1.1//EN"
 "http://www.w3.org/Graphics/SVG/1.1/DTD/svg11.dtd">
<!-- Generated by graphviz version 2.38.0 (20140413.2041)
 -->
<!-- Title: G Pages: 1 -->
<svg width="101pt" height="95pt"
 viewBox="0.00 0.00 101.20 95.00" xmlns="http://www.w3.org/2000/svg" xmlns:xlink="http://www.w3.org/1999/xlink">
<g id="graph0" class="graph" transform="scale(1 1) rotate(0) translate(4 91)">
<title>G</title>
<polygon fill="white" stroke="none" points="-4,4 -4,-91 97.2031,-91 97.2031,4 -4,4"/>
<g id="clust1" class="cluster"><title>cluster_Global</title>
<path fill="none" stroke="gray" d="M20,-8C20,-8 73.2031,-8 73.2031,-8 79.2031,-8 85.2031,-14 85.2031,-20 85.2031,-20 85.2031,-67 85.2031,-67 85.2031,-73 79.2031,-79 73.2031,-79 73.2031,-79 20,-79 20,-79 14,-79 8,-73 8,-67 8,-67 8,-20 8,-20 8,-14 14,-8 20,-8"/>
<text text-anchor="middle" x="46.6016" y="-66.2" font-family="Times,serif" font-size="11.00" fill="gray">Global</text>
</g>
<!-- \\AllSpark -->
<g id="node1" class="node"><title>\\AllSpark</title>
<polygon fill="none" stroke="black" points="77.305,-52 15.8981,-52 15.8981,-16 77.305,-16 77.305,-52"/>
<text text-anchor="start" x="24" y="-36.2" font-family="Times,serif" font-size="11.00">«abstract»</text>
<text text-anchor="start" x="26.7419" y="-25.2" font-family="Times,serif" font-size="11.00">AllSpark</text>
</g>
</g>
</svg>
